<?xml version="1.0" encoding="UTF-8"?>
<svg xmlns="http://www.w3.org/2000/svg" viewBox="0 0 32 32" fill="none">
  <path fill="#2C2C2C" d="M8.095,4.988C8.075,5.008 8.059,5.046 8.059,5.073C8.059,5.142 8.368,5.437 8.44,5.437C8.474,5.437 8.554,5.492 8.619,5.558C8.685,5.625 8.766,5.68 8.801,5.68C8.838,5.68 8.939,5.755 9.044,5.861C9.149,5.968 9.25,6.043 9.287,6.043C9.321,6.043 9.403,6.098 9.468,6.164C9.533,6.231 9.615,6.286 9.649,6.286C9.688,6.286 9.826,6.4 10.014,6.589C10.198,6.774 10.34,6.892 10.377,6.892C10.461,6.892 12.181,8.612 12.181,8.696C12.181,8.733 12.3,8.876 12.484,9.059C12.673,9.247 12.787,9.385 12.787,9.424C12.787,9.458 12.842,9.539 12.908,9.605C12.975,9.67 13.029,9.751 13.029,9.786C13.029,9.821 13.084,9.903 13.151,9.968C13.217,10.033 13.272,10.113 13.272,10.146C13.272,10.178 13.333,10.27 13.408,10.35C13.483,10.43 13.545,10.51 13.545,10.527C13.545,10.589 13.355,10.771 13.291,10.771C13.249,10.771 13.138,10.859 12.984,11.014C12.837,11.161 12.718,11.256 12.68,11.256C12.646,11.256 12.564,11.311 12.499,11.378C12.434,11.444 12.352,11.499 12.316,11.499C12.28,11.499 12.226,11.526 12.196,11.559C12.166,11.593 12.112,11.62 12.076,11.62C12.04,11.62 11.958,11.674 11.893,11.741C11.828,11.808 11.745,11.863 11.71,11.863C11.674,11.863 11.62,11.89 11.59,11.923C11.56,11.957 11.505,11.984 11.469,11.984C11.432,11.984 11.377,12.011 11.347,12.044C11.309,12.087 11.254,12.105 11.165,12.105C11.077,12.105 11.022,12.123 10.984,12.166C10.945,12.208 10.89,12.226 10.802,12.226C10.713,12.226 10.658,12.245 10.62,12.287C10.576,12.335 10.527,12.348 10.377,12.348C10.228,12.348 10.179,12.36 10.135,12.408C10.105,12.441 10.051,12.469 10.015,12.469C9.932,12.469 9.877,12.524 9.877,12.606C9.877,12.642 9.85,12.696 9.817,12.726C9.764,12.774 9.756,12.82 9.756,13.075C9.756,13.33 9.764,13.376 9.817,13.423C9.85,13.454 9.877,13.507 9.877,13.543C9.877,13.581 9.944,13.673 10.037,13.765C10.195,13.921 10.2,13.924 10.383,13.924C10.557,13.924 10.574,13.93 10.661,14.03C10.736,14.115 10.751,14.154 10.737,14.226C10.723,14.295 10.737,14.337 10.797,14.409C10.858,14.481 10.871,14.522 10.857,14.593C10.843,14.663 10.856,14.701 10.909,14.758C10.967,14.82 10.978,14.861 10.972,15.001C10.966,15.142 10.977,15.183 11.042,15.26C11.1,15.33 11.114,15.371 11.1,15.441C11.086,15.511 11.098,15.55 11.151,15.607C11.21,15.669 11.22,15.71 11.214,15.86C11.209,16.013 11.217,16.046 11.273,16.085C11.31,16.111 11.333,16.154 11.326,16.186C11.311,16.261 11.164,16.251 11.076,16.168C11.032,16.127 10.969,16.106 10.888,16.106C10.804,16.106 10.748,16.087 10.711,16.045C10.673,16.003 10.617,15.985 10.529,15.985C10.44,15.985 10.385,15.966 10.347,15.924C10.317,15.891 10.262,15.863 10.226,15.863C10.189,15.863 10.135,15.836 10.105,15.803C10.066,15.76 10.011,15.742 9.923,15.742C9.834,15.742 9.779,15.724 9.741,15.681C9.711,15.648 9.656,15.621 9.62,15.621C9.583,15.621 9.529,15.594 9.498,15.56C9.46,15.518 9.405,15.5 9.317,15.5C9.228,15.5 9.173,15.481 9.135,15.439C9.105,15.406 9.05,15.378 9.014,15.378C8.977,15.378 8.922,15.351 8.892,15.318C8.854,15.276 8.799,15.257 8.71,15.257C8.622,15.257 8.567,15.239 8.529,15.197C8.498,15.163 8.444,15.136 8.407,15.136C8.371,15.136 8.316,15.109 8.286,15.075C8.256,15.042 8.201,15.015 8.165,15.015C8.128,15.015 8.074,14.987 8.044,14.954C8.013,14.921 7.959,14.893 7.922,14.893C7.886,14.893 7.831,14.866 7.801,14.833C7.771,14.8 7.716,14.772 7.68,14.772C7.643,14.772 7.589,14.745 7.559,14.712C7.52,14.669 7.465,14.651 7.377,14.651C7.288,14.651 7.233,14.633 7.195,14.59C7.165,14.557 7.11,14.53 7.074,14.53C7.037,14.53 6.983,14.502 6.952,14.469C6.922,14.436 6.868,14.409 6.831,14.409C6.795,14.409 6.74,14.381 6.71,14.348C6.68,14.315 6.625,14.287 6.589,14.287C6.552,14.287 6.498,14.26 6.468,14.227C6.437,14.193 6.383,14.166 6.346,14.166C6.31,14.166 6.255,14.139 6.225,14.105C6.195,14.072 6.14,14.045 6.104,14.045C6.067,14.045 6.013,14.018 5.983,13.984C5.952,13.951 5.898,13.924 5.861,13.924C5.825,13.924 5.77,13.896 5.74,13.863C5.71,13.83 5.655,13.802 5.619,13.802C5.582,13.802 5.528,13.775 5.498,13.742C5.467,13.708 5.413,13.681 5.376,13.681C5.34,13.681 5.285,13.654 5.255,13.62C5.217,13.578 5.162,13.56 5.073,13.56C4.985,13.56 4.93,13.541 4.891,13.499C4.861,13.466 4.807,13.439 4.77,13.439C4.734,13.439 4.679,13.411 4.649,13.378C4.611,13.336 4.556,13.317 4.467,13.317C4.379,13.317 4.324,13.299 4.285,13.257C4.242,13.209 4.192,13.196 4.043,13.196C3.894,13.196 3.844,13.184 3.8,13.136C3.77,13.102 3.722,13.075 3.694,13.075C3.666,13.075 3.618,13.102 3.588,13.136C3.55,13.178 3.495,13.196 3.408,13.196C3.301,13.196 3.264,13.215 3.164,13.317C3.099,13.384 3.017,13.439 2.983,13.439C2.9,13.439 2.482,13.858 2.482,13.941C2.482,13.975 2.427,14.055 2.361,14.121C2.294,14.186 2.24,14.26 2.241,14.286C2.241,14.312 2.283,14.38 2.334,14.439L2.426,14.545L2.473,14.477C2.499,14.439 2.55,14.409 2.587,14.409C2.624,14.409 2.679,14.381 2.709,14.348C2.759,14.293 2.803,14.287 3.209,14.287C3.616,14.287 3.659,14.293 3.709,14.348C3.753,14.396 3.803,14.409 3.952,14.409C4.101,14.409 4.151,14.421 4.194,14.469C4.238,14.517 4.288,14.53 4.437,14.53C4.586,14.53 4.636,14.542 4.679,14.59C4.718,14.633 4.773,14.651 4.861,14.651C4.95,14.651 5.005,14.669 5.043,14.712C5.081,14.754 5.136,14.772 5.225,14.772C5.313,14.772 5.369,14.791 5.407,14.833C5.445,14.875 5.5,14.893 5.589,14.893C5.677,14.893 5.732,14.912 5.77,14.954C5.809,14.996 5.864,15.015 5.952,15.015C6.041,15.015 6.096,15.033 6.134,15.075C6.172,15.118 6.228,15.136 6.316,15.136C6.405,15.136 6.46,15.154 6.498,15.197C6.536,15.239 6.591,15.257 6.68,15.257C6.768,15.257 6.823,15.276 6.862,15.318C6.9,15.36 6.955,15.378 7.043,15.378C7.132,15.378 7.187,15.397 7.225,15.439C7.264,15.481 7.319,15.5 7.407,15.5C7.496,15.5 7.551,15.518 7.589,15.56C7.627,15.603 7.682,15.621 7.771,15.621C7.859,15.621 7.914,15.639 7.953,15.681C7.991,15.724 8.046,15.742 8.135,15.742C8.223,15.742 8.278,15.76 8.316,15.803C8.355,15.845 8.41,15.863 8.498,15.863C8.587,15.863 8.642,15.882 8.68,15.924C8.718,15.966 8.773,15.985 8.862,15.985C8.95,15.985 9.006,16.003 9.044,16.045C9.082,16.087 9.137,16.106 9.226,16.106C9.314,16.106 9.369,16.124 9.408,16.166C9.446,16.209 9.501,16.227 9.589,16.227C9.678,16.227 9.733,16.245 9.771,16.288C9.809,16.33 9.865,16.348 9.953,16.348C10.042,16.348 10.097,16.367 10.135,16.409C10.173,16.451 10.228,16.47 10.317,16.47C10.405,16.47 10.46,16.488 10.499,16.53C10.537,16.572 10.592,16.591 10.68,16.591C10.769,16.591 10.824,16.609 10.862,16.651C10.901,16.694 10.956,16.712 11.044,16.712C11.133,16.712 11.188,16.73 11.226,16.773C11.256,16.806 11.319,16.833 11.367,16.833C11.441,16.833 11.453,16.845 11.453,16.915C11.453,16.959 11.483,17.028 11.519,17.066C11.573,17.123 11.584,17.168 11.578,17.304C11.572,17.445 11.584,17.487 11.648,17.563C11.707,17.633 11.72,17.675 11.706,17.745C11.692,17.815 11.704,17.854 11.758,17.91C11.816,17.972 11.826,18.013 11.821,18.155C11.815,18.296 11.826,18.339 11.881,18.398C11.937,18.457 11.947,18.5 11.942,18.64C11.936,18.781 11.947,18.824 12.002,18.883C12.058,18.942 12.069,18.985 12.063,19.125C12.057,19.266 12.068,19.309 12.124,19.368C12.179,19.427 12.19,19.47 12.184,19.61C12.179,19.751 12.189,19.793 12.245,19.853C12.3,19.912 12.311,19.955 12.306,20.095C12.3,20.236 12.311,20.278 12.366,20.338C12.422,20.397 12.432,20.44 12.427,20.58C12.421,20.721 12.432,20.763 12.487,20.823C12.543,20.882 12.554,20.925 12.548,21.065C12.542,21.206 12.553,21.248 12.609,21.308C12.664,21.367 12.675,21.409 12.669,21.55C12.664,21.69 12.674,21.733 12.729,21.792C12.787,21.854 12.795,21.892 12.79,22.095C12.784,22.297 12.792,22.336 12.85,22.398C12.909,22.46 12.916,22.499 12.911,22.701C12.906,22.903 12.913,22.942 12.972,23.004C13.03,23.066 13.038,23.105 13.032,23.307C13.027,23.508 13.035,23.548 13.091,23.609C13.152,23.674 13.157,23.707 13.152,24.094C13.148,24.479 13.153,24.515 13.212,24.578C13.27,24.64 13.276,24.681 13.276,25.017C13.276,25.353 13.27,25.394 13.212,25.456C13.154,25.517 13.148,25.556 13.153,25.817C13.158,26.079 13.152,26.118 13.094,26.179C13.058,26.217 13.029,26.276 13.029,26.31C13.029,26.343 13.002,26.396 12.969,26.426C12.935,26.456 12.908,26.511 12.908,26.547C12.908,26.584 12.881,26.638 12.848,26.669C12.779,26.731 12.764,26.921 12.823,26.981C12.891,27.048 12.955,27.018 13.136,26.835C13.238,26.731 13.342,26.653 13.377,26.653C13.463,26.653 15.333,24.782 15.333,24.697C15.333,24.663 15.387,24.582 15.454,24.517C15.567,24.406 15.575,24.386 15.575,24.23L15.575,24.061L15.212,23.698C14.982,23.469 14.848,23.312 14.848,23.273C14.848,23.239 14.793,23.157 14.727,23.092C14.66,23.027 14.606,22.945 14.606,22.909C14.606,22.873 14.578,22.819 14.545,22.789C14.512,22.759 14.484,22.704 14.484,22.668C14.484,22.631 14.457,22.577 14.424,22.546C14.39,22.516 14.363,22.465 14.363,22.432C14.363,22.4 14.33,22.334 14.289,22.286C14.233,22.218 14.219,22.175 14.231,22.099C14.244,22.024 14.232,21.986 14.184,21.943C14.149,21.911 14.121,21.859 14.121,21.826C14.121,21.794 14.087,21.728 14.047,21.679C13.99,21.612 13.977,21.569 13.989,21.493C14.001,21.418 13.99,21.38 13.942,21.337C13.907,21.305 13.878,21.253 13.878,21.22C13.878,21.188 13.844,21.121 13.803,21.072C13.747,21.005 13.733,20.962 13.746,20.895C13.76,20.827 13.746,20.784 13.687,20.714C13.627,20.642 13.613,20.6 13.625,20.523C13.637,20.448 13.626,20.41 13.578,20.367C13.543,20.335 13.514,20.283 13.514,20.25C13.514,20.218 13.481,20.151 13.44,20.102C13.383,20.035 13.369,19.992 13.383,19.925C13.396,19.857 13.382,19.814 13.323,19.744C13.263,19.673 13.249,19.63 13.261,19.553C13.274,19.478 13.262,19.441 13.214,19.397C13.179,19.365 13.151,19.313 13.151,19.28C13.151,19.248 13.117,19.181 13.076,19.132C13.019,19.065 13.005,19.022 13.019,18.955C13.032,18.887 13.018,18.844 12.958,18.773C12.898,18.702 12.884,18.659 12.898,18.591C12.911,18.523 12.897,18.48 12.838,18.41C12.778,18.339 12.764,18.296 12.777,18.219C12.789,18.144 12.777,18.107 12.729,18.063C12.694,18.032 12.666,17.979 12.666,17.947C12.666,17.914 12.632,17.848 12.592,17.8C12.535,17.733 12.522,17.689 12.534,17.613C12.547,17.535 12.533,17.497 12.47,17.428C12.425,17.38 12.397,17.322 12.406,17.297C12.416,17.273 12.423,17.24 12.423,17.225C12.423,17.209 12.523,17.197 12.646,17.197C12.83,17.197 12.878,17.207 12.923,17.258C12.967,17.306 13.017,17.318 13.166,17.318C13.315,17.318 13.365,17.331 13.408,17.379C13.452,17.427 13.502,17.439 13.651,17.439C13.8,17.439 13.85,17.452 13.893,17.5C13.937,17.548 13.987,17.561 14.136,17.561C14.285,17.561 14.335,17.573 14.378,17.621C14.422,17.669 14.472,17.682 14.621,17.682C14.77,17.682 14.82,17.694 14.863,17.743C14.907,17.791 14.956,17.803 15.106,17.803C15.255,17.803 15.304,17.816 15.348,17.864C15.392,17.912 15.441,17.924 15.591,17.924C15.74,17.924 15.789,17.937 15.833,17.985C15.874,18.03 15.926,18.046 16.035,18.046L16.182,18.046L16.182,18.248C16.182,18.414 16.193,18.464 16.247,18.52C16.303,18.58 16.311,18.621 16.306,18.821C16.3,19.024 16.308,19.063 16.366,19.124C16.424,19.186 16.432,19.225 16.427,19.428C16.421,19.629 16.429,19.669 16.487,19.73C16.546,19.794 16.553,19.83 16.548,20.094C16.543,20.355 16.549,20.395 16.606,20.455C16.666,20.519 16.669,20.556 16.669,21.076C16.669,21.604 16.666,21.633 16.603,21.701C16.553,21.754 16.542,21.793 16.555,21.862C16.569,21.932 16.556,21.974 16.499,22.042C16.44,22.113 16.424,22.165 16.424,22.295C16.424,22.462 16.459,22.531 16.544,22.531C16.571,22.531 16.701,22.422 16.833,22.289C16.977,22.144 17.099,22.046 17.136,22.046C17.219,22.046 17.879,21.385 17.879,21.302C17.879,21.268 17.958,21.163 18.061,21.061C18.239,20.885 18.243,20.878 18.243,20.715L18.243,20.549L17.864,20.166C17.507,19.805 17.486,19.777 17.503,19.688C17.518,19.613 17.506,19.574 17.444,19.5C17.383,19.428 17.37,19.387 17.384,19.316C17.398,19.247 17.386,19.208 17.333,19.151C17.272,19.087 17.265,19.05 17.27,18.846C17.275,18.643 17.268,18.605 17.209,18.542C17.153,18.483 17.142,18.44 17.148,18.3C17.154,18.159 17.143,18.116 17.087,18.057C17.032,17.998 17.021,17.955 17.027,17.815C17.032,17.674 17.022,17.631 16.966,17.572C16.911,17.513 16.9,17.47 16.906,17.33C16.911,17.189 16.901,17.146 16.845,17.087C16.79,17.028 16.779,16.985 16.784,16.847C16.79,16.706 16.779,16.665 16.715,16.588C16.656,16.518 16.642,16.477 16.656,16.406C16.67,16.337 16.658,16.298 16.605,16.241C16.547,16.179 16.536,16.138 16.542,15.996C16.547,15.856 16.537,15.813 16.481,15.754C16.426,15.695 16.415,15.651 16.42,15.514C16.426,15.372 16.415,15.331 16.351,15.255C16.293,15.186 16.279,15.143 16.292,15.075C16.306,15.007 16.291,14.965 16.232,14.893C16.172,14.822 16.157,14.779 16.171,14.712C16.185,14.644 16.17,14.601 16.11,14.53C16.051,14.459 16.036,14.416 16.05,14.348C16.063,14.28 16.049,14.237 15.989,14.166C15.929,14.095 15.915,14.052 15.929,13.984C15.942,13.916 15.928,13.873 15.868,13.802C15.808,13.731 15.794,13.688 15.807,13.62C15.821,13.553 15.807,13.51 15.747,13.439C15.687,13.367 15.672,13.324 15.686,13.257C15.7,13.189 15.685,13.146 15.625,13.075C15.566,13.004 15.551,12.961 15.565,12.893C15.578,12.825 15.564,12.782 15.504,12.711C15.444,12.64 15.43,12.597 15.444,12.529C15.457,12.462 15.443,12.419 15.384,12.349C15.324,12.277 15.31,12.234 15.322,12.158C15.335,12.082 15.323,12.045 15.275,12.001C15.24,11.97 15.212,11.917 15.212,11.885C15.212,11.852 15.178,11.786 15.138,11.738C15.081,11.671 15.068,11.627 15.08,11.551C15.092,11.476 15.081,11.439 15.033,11.395C14.998,11.364 14.969,11.31 14.969,11.276C14.969,11.243 14.94,11.184 14.905,11.147C14.854,11.092 14.841,11.04 14.841,10.892C14.841,10.709 14.844,10.702 14.987,10.556C15.069,10.474 15.161,10.408 15.196,10.408C15.234,10.408 15.354,10.312 15.5,10.165C15.644,10.02 15.765,9.923 15.803,9.923C15.84,9.923 15.961,9.826 16.106,9.68C16.25,9.535 16.372,9.438 16.409,9.438C16.447,9.438 16.587,9.321 16.773,9.135C16.957,8.95 17.099,8.832 17.136,8.832C17.22,8.832 18.485,7.566 18.485,7.481C18.485,7.447 18.54,7.366 18.606,7.301C18.673,7.236 18.728,7.154 18.728,7.118C18.728,7.082 18.755,7.028 18.788,6.998C18.821,6.968 18.849,6.913 18.849,6.877C18.849,6.84 18.876,6.786 18.909,6.756C18.943,6.725 18.97,6.671 18.97,6.634C18.97,6.598 18.999,6.542 19.033,6.511C19.082,6.467 19.093,6.429 19.081,6.354C19.069,6.279 19.082,6.235 19.139,6.168C19.179,6.119 19.212,6.061 19.212,6.038C19.212,6.015 19.14,5.925 19.052,5.838L18.892,5.68L18.602,5.68C18.351,5.68 18.305,5.688 18.258,5.74C18.228,5.773 18.174,5.801 18.139,5.801C18.054,5.801 17.515,6.339 17.515,6.424C17.515,6.458 17.436,6.563 17.333,6.665C17.228,6.768 17.151,6.871 17.151,6.907C17.151,6.944 17.055,7.065 16.909,7.21C16.764,7.354 16.667,7.476 16.667,7.513C16.667,7.553 16.451,7.79 16.06,8.18C15.667,8.573 15.454,8.807 15.454,8.848C15.454,8.927 15.183,9.195 15.103,9.195C15.065,9.195 14.906,9.333 14.683,9.559C14.485,9.759 14.313,9.923 14.299,9.923C14.25,9.923 14.001,9.632 14,9.574C14,9.538 13.898,9.412 13.757,9.271C13.613,9.128 13.514,9.005 13.514,8.969C13.514,8.883 11.522,6.892 11.437,6.892C11.403,6.892 11.321,6.837 11.256,6.771C11.191,6.704 11.11,6.649 11.075,6.649C11.038,6.649 10.937,6.574 10.832,6.468C10.728,6.362 10.626,6.286 10.59,6.286C10.553,6.286 10.451,6.209 10.347,6.104C10.239,5.995 10.141,5.922 10.103,5.922C10.067,5.922 10.014,5.895 9.983,5.861C9.953,5.828 9.899,5.801 9.862,5.801C9.826,5.801 9.771,5.773 9.741,5.74C9.711,5.707 9.657,5.68 9.621,5.68C9.585,5.68 9.503,5.625 9.438,5.558C9.361,5.479 9.292,5.437 9.242,5.437C9.197,5.437 9.148,5.411 9.127,5.376C9.104,5.34 9.056,5.316 9.005,5.316C8.955,5.316 8.907,5.292 8.884,5.255C8.863,5.222 8.815,5.195 8.777,5.195C8.736,5.195 8.659,5.145 8.589,5.073C8.479,4.96 8.459,4.952 8.301,4.952C8.208,4.952 8.115,4.968 8.095,4.988Z"/>
  <path fill="#2C2C2C" d="M22.38,10.226C22.35,10.259 22.295,10.286 22.259,10.286C22.222,10.286 22.167,10.314 22.137,10.347C22.107,10.38 22.053,10.408 22.016,10.408C21.98,10.408 21.925,10.435 21.895,10.468C21.865,10.502 21.81,10.529 21.774,10.529C21.737,10.529 21.683,10.556 21.652,10.59C21.622,10.623 21.569,10.65 21.533,10.65C21.448,10.65 20.789,11.309 20.789,11.395C20.789,11.429 20.734,11.51 20.667,11.575C20.601,11.64 20.546,11.722 20.546,11.756C20.546,11.791 20.492,11.873 20.425,11.938C20.358,12.004 20.304,12.086 20.304,12.122C20.304,12.157 20.276,12.211 20.243,12.241C20.21,12.272 20.182,12.326 20.182,12.361C20.182,12.397 20.128,12.479 20.059,12.546C19.952,12.649 19.937,12.679 19.951,12.764C19.963,12.839 19.949,12.884 19.893,12.95C19.787,13.075 19.788,13.318 19.893,13.443C19.95,13.51 19.964,13.554 19.95,13.621C19.937,13.688 19.951,13.731 20.01,13.801C20.07,13.873 20.084,13.916 20.072,13.992C20.059,14.067 20.071,14.105 20.119,14.148C20.207,14.228 20.208,14.467 20.122,14.545C20.088,14.575 20.061,14.63 20.061,14.666C20.061,14.703 20.033,14.758 19.998,14.79C19.949,14.834 19.938,14.871 19.95,14.946C19.963,15.022 19.949,15.065 19.893,15.133C19.852,15.181 19.819,15.247 19.819,15.28C19.819,15.312 19.79,15.365 19.755,15.396C19.707,15.44 19.696,15.477 19.708,15.552C19.72,15.628 19.707,15.672 19.648,15.741C19.585,15.816 19.574,15.858 19.58,15.999C19.585,16.136 19.574,16.18 19.519,16.239C19.463,16.298 19.453,16.34 19.458,16.481C19.464,16.62 19.453,16.664 19.4,16.722C19.286,16.842 19.323,17.076 19.454,17.076C19.525,17.076 19.819,16.767 19.819,16.693C19.819,16.659 19.846,16.606 19.879,16.576C19.913,16.545 19.94,16.491 19.94,16.454C19.94,16.418 19.967,16.363 20.001,16.333C20.034,16.303 20.061,16.248 20.061,16.212C20.061,16.175 20.088,16.121 20.122,16.091C20.155,16.06 20.182,16.007 20.182,15.971C20.182,15.935 20.237,15.853 20.304,15.788C20.37,15.722 20.425,15.64 20.425,15.604C20.425,15.569 20.452,15.515 20.485,15.484C20.519,15.454 20.546,15.4 20.546,15.363C20.546,15.327 20.575,15.271 20.609,15.239C20.658,15.196 20.669,15.158 20.657,15.083C20.645,15.008 20.658,14.964 20.715,14.897C20.755,14.848 20.789,14.782 20.789,14.75C20.789,14.717 20.816,14.666 20.849,14.636C20.882,14.606 20.91,14.551 20.91,14.515C20.91,14.478 20.937,14.424 20.97,14.393C21.004,14.363 21.031,14.309 21.031,14.272C21.031,14.236 21.06,14.18 21.094,14.148C21.143,14.105 21.154,14.067 21.142,13.992C21.13,13.916 21.143,13.873 21.2,13.806C21.24,13.757 21.273,13.691 21.273,13.659C21.273,13.626 21.301,13.575 21.334,13.545C21.367,13.515 21.395,13.46 21.395,13.423C21.395,13.387 21.422,13.332 21.455,13.302C21.489,13.272 21.516,13.218 21.516,13.181C21.516,13.144 21.543,13.09 21.577,13.06C21.61,13.03 21.637,12.975 21.637,12.939C21.637,12.902 21.664,12.847 21.698,12.817C21.731,12.787 21.758,12.733 21.758,12.698C21.758,12.662 21.813,12.58 21.88,12.514C21.946,12.449 22.001,12.367 22.001,12.332C22.001,12.297 22.055,12.216 22.122,12.151C22.189,12.085 22.243,12.004 22.243,11.969C22.243,11.934 22.307,11.843 22.388,11.763C22.518,11.635 22.548,11.62 22.672,11.62C22.771,11.62 22.825,11.637 22.865,11.681C22.895,11.714 22.949,11.741 22.986,11.741C23.022,11.741 23.077,11.769 23.107,11.802C23.137,11.835 23.191,11.863 23.227,11.863C23.263,11.863 23.345,11.917 23.41,11.984C23.475,12.05 23.557,12.105 23.591,12.105C23.676,12.105 25.032,13.461 25.032,13.546C25.032,13.582 25.131,13.705 25.274,13.848C25.425,13.998 25.517,14.113 25.517,14.153C25.517,14.188 25.544,14.242 25.577,14.272C25.611,14.302 25.638,14.356 25.638,14.392C25.638,14.428 25.692,14.51 25.759,14.575C25.826,14.64 25.88,14.722 25.88,14.757C25.88,14.792 25.935,14.874 26.002,14.939C26.068,15.004 26.123,15.083 26.123,15.115C26.123,15.147 26.156,15.212 26.197,15.26C26.253,15.328 26.267,15.371 26.255,15.447C26.242,15.522 26.254,15.56 26.302,15.603C26.337,15.635 26.365,15.69 26.365,15.727C26.365,15.763 26.393,15.818 26.426,15.848C26.459,15.878 26.487,15.93 26.487,15.962C26.487,15.995 26.52,16.061 26.561,16.11C26.618,16.177 26.632,16.221 26.618,16.288C26.605,16.356 26.619,16.398 26.679,16.47C26.74,16.542 26.753,16.583 26.739,16.654C26.725,16.724 26.737,16.762 26.791,16.819C26.849,16.881 26.86,16.922 26.854,17.062C26.848,17.199 26.86,17.245 26.917,17.313C26.986,17.395 26.987,17.404 26.978,18.084L26.969,18.773L26.566,18.773C26.201,18.773 26.157,18.767 26.108,18.712C26.064,18.664 26.014,18.652 25.865,18.652C25.716,18.652 25.666,18.639 25.623,18.591C25.585,18.549 25.529,18.531 25.441,18.531C25.352,18.531 25.297,18.512 25.259,18.47C25.221,18.428 25.166,18.409 25.077,18.409C24.989,18.409 24.934,18.391 24.895,18.349C24.865,18.315 24.811,18.288 24.774,18.288C24.738,18.288 24.683,18.261 24.653,18.227C24.615,18.185 24.56,18.167 24.471,18.167C24.383,18.167 24.327,18.148 24.289,18.106C24.259,18.073 24.205,18.046 24.168,18.046C24.131,18.046 24.077,18.018 24.047,17.985C24.017,17.952 23.962,17.924 23.926,17.924C23.889,17.924 23.834,17.897 23.804,17.864C23.774,17.83 23.72,17.803 23.683,17.803C23.647,17.803 23.592,17.776 23.562,17.743C23.524,17.7 23.468,17.682 23.38,17.682C23.291,17.682 23.236,17.664 23.198,17.621C23.168,17.588 23.113,17.561 23.077,17.561C23.04,17.561 22.986,17.533 22.956,17.5C22.917,17.458 22.862,17.439 22.774,17.439C22.685,17.439 22.63,17.421 22.592,17.379C22.554,17.337 22.499,17.318 22.41,17.318C22.322,17.318 22.266,17.3 22.228,17.258C22.179,17.203 22.135,17.197 21.804,17.197C21.473,17.197 21.429,17.191 21.38,17.136C21.297,17.045 21.13,17.058 21.004,17.166L20.901,17.254L21.065,17.406C21.155,17.49 21.257,17.559 21.292,17.559C21.326,17.56 21.38,17.588 21.41,17.621C21.44,17.655 21.495,17.682 21.531,17.682C21.568,17.682 21.622,17.709 21.652,17.743C21.683,17.776 21.737,17.803 21.774,17.803C21.81,17.803 21.865,17.83 21.895,17.864C21.933,17.906 21.988,17.924 22.077,17.924C22.165,17.924 22.22,17.943 22.259,17.985C22.289,18.018 22.343,18.046 22.38,18.046C22.416,18.046 22.471,18.073 22.501,18.106C22.531,18.14 22.586,18.167 22.622,18.167C22.659,18.167 22.713,18.194 22.743,18.227C22.782,18.27 22.837,18.288 22.925,18.288C23.014,18.288 23.069,18.306 23.107,18.349C23.137,18.382 23.192,18.409 23.228,18.409C23.265,18.409 23.319,18.437 23.35,18.47C23.388,18.512 23.443,18.531 23.532,18.531C23.62,18.531 23.675,18.549 23.713,18.591C23.744,18.624 23.798,18.652 23.835,18.652C23.871,18.652 23.926,18.679 23.956,18.712C23.994,18.755 24.049,18.773 24.138,18.773C24.226,18.773 24.281,18.791 24.32,18.834C24.35,18.867 24.404,18.894 24.441,18.894C24.477,18.894 24.532,18.922 24.562,18.955C24.6,18.997 24.655,19.015 24.744,19.015C24.832,19.015 24.887,19.034 24.926,19.076C24.964,19.118 25.019,19.137 25.108,19.137C25.196,19.137 25.251,19.155 25.289,19.197C25.32,19.231 25.374,19.258 25.411,19.258C25.447,19.258 25.502,19.285 25.532,19.319C25.57,19.361 25.625,19.379 25.714,19.379C25.802,19.379 25.857,19.398 25.896,19.44C25.942,19.491 25.989,19.5 26.199,19.5C26.408,19.5 26.455,19.51 26.502,19.561C26.572,19.638 26.644,19.638 26.714,19.561C26.758,19.513 26.807,19.5 26.956,19.5C27.106,19.5 27.155,19.488 27.199,19.44C27.229,19.406 27.284,19.379 27.32,19.379C27.357,19.379 27.411,19.352 27.441,19.319C27.472,19.285 27.526,19.258 27.563,19.258C27.599,19.258 27.654,19.231 27.684,19.197C27.714,19.164 27.768,19.137 27.803,19.137C27.843,19.137 27.958,19.045 28.108,18.894C28.253,18.749 28.374,18.652 28.411,18.652C28.449,18.652 28.589,18.535 28.775,18.349C28.96,18.163 29.101,18.046 29.139,18.046C29.176,18.046 29.31,17.936 29.48,17.765L29.76,17.484L29.76,17.255C29.76,17.037 29.756,17.023 29.66,16.93C29.581,16.854 29.534,16.833 29.437,16.833C29.353,16.833 29.298,16.814 29.26,16.773C29.23,16.739 29.175,16.712 29.139,16.712C29.102,16.712 29.048,16.685 29.017,16.651C28.987,16.618 28.933,16.591 28.898,16.591C28.862,16.591 28.78,16.536 28.714,16.47C28.649,16.403 28.568,16.348 28.533,16.348C28.452,16.348 28.184,16.078 28.184,15.998C28.184,15.964 28.104,15.858 28.002,15.757C27.896,15.652 27.82,15.551 27.82,15.514C27.82,15.48 27.766,15.398 27.699,15.333C27.632,15.268 27.578,15.186 27.578,15.151C27.578,15.116 27.523,15.034 27.457,14.969C27.39,14.904 27.335,14.822 27.335,14.787C27.335,14.752 27.281,14.671 27.214,14.606C27.147,14.54 27.093,14.459 27.093,14.424C27.093,14.389 27.038,14.307 26.972,14.242C26.905,14.177 26.85,14.095 26.85,14.06C26.85,14.025 26.796,13.943 26.729,13.878C26.662,13.813 26.608,13.731 26.608,13.697C26.608,13.659 26.513,13.54 26.365,13.393C26.228,13.257 26.123,13.127 26.123,13.093C26.123,13.061 26.033,12.941 25.923,12.827C25.788,12.688 25.729,12.604 25.741,12.572C25.751,12.546 25.759,12.512 25.759,12.497C25.759,12.48 26.123,12.469 26.633,12.469C27.469,12.469 27.51,12.466 27.563,12.408C27.593,12.375 27.647,12.348 27.684,12.348C27.72,12.348 27.775,12.32 27.805,12.287C27.835,12.254 27.889,12.226 27.925,12.226C28.008,12.226 28.063,12.171 28.063,12.089C28.063,12.053 28.09,11.999 28.123,11.969C28.21,11.89 28.21,11.593 28.123,11.514C28.09,11.484 28.063,11.43 28.063,11.394C28.063,11.358 28.018,11.285 27.963,11.232C27.842,11.115 27.68,11.099 27.593,11.196C27.549,11.244 27.5,11.256 27.35,11.256C27.201,11.256 27.152,11.269 27.108,11.317C27.078,11.35 27.023,11.378 26.987,11.378C26.95,11.378 26.896,11.405 26.865,11.438C26.827,11.48 26.772,11.499 26.684,11.499C26.595,11.499 26.54,11.517 26.502,11.559C26.458,11.608 26.408,11.62 26.259,11.62C26.11,11.62 26.06,11.633 26.017,11.681C25.967,11.736 25.923,11.741 25.517,11.741C25.11,11.741 25.067,11.736 25.017,11.681C24.97,11.629 24.923,11.62 24.714,11.62C24.504,11.62 24.457,11.611 24.41,11.559C24.372,11.517 24.317,11.499 24.229,11.499C24.14,11.499 24.085,11.48 24.047,11.438C24.009,11.396 23.953,11.378 23.867,11.378C23.75,11.378 23.725,11.36 23.473,11.107L23.203,10.835L23.21,10.662C23.217,10.49 23.215,10.488 23.057,10.327L22.897,10.165L22.666,10.165C22.473,10.165 22.425,10.175 22.38,10.226Z"/>
  <path fill="#2C2C2C" d="M14.045,11.461C14.086,11.507 14.119,11.573 14.12,11.608C14.12,11.643 14.148,11.696 14.181,11.726C14.215,11.756 14.242,11.808 14.242,11.84C14.242,11.873 14.275,11.939 14.316,11.987C14.372,12.054 14.386,12.098 14.373,12.174C14.361,12.249 14.373,12.286 14.421,12.33C14.456,12.361 14.484,12.414 14.484,12.446C14.484,12.479 14.518,12.545 14.559,12.594C14.616,12.662 14.63,12.705 14.616,12.772C14.603,12.84 14.617,12.883 14.676,12.953C14.736,13.024 14.75,13.067 14.737,13.144C14.725,13.219 14.736,13.256 14.785,13.3C14.819,13.331 14.848,13.384 14.848,13.416C14.848,13.449 14.882,13.515 14.923,13.564C14.979,13.631 14.993,13.675 14.98,13.742C14.966,13.81 14.981,13.853 15.04,13.924C15.101,13.996 15.115,14.037 15.101,14.108C15.087,14.178 15.099,14.216 15.152,14.273C15.21,14.335 15.221,14.376 15.215,14.516C15.21,14.657 15.221,14.698 15.285,14.775C15.343,14.844 15.357,14.887 15.344,14.954C15.33,15.022 15.344,15.065 15.404,15.136C15.465,15.208 15.478,15.25 15.464,15.32C15.45,15.39 15.462,15.429 15.516,15.486C15.574,15.548 15.585,15.589 15.579,15.731C15.573,15.871 15.584,15.914 15.639,15.973C15.695,16.032 15.706,16.075 15.7,16.216C15.694,16.356 15.705,16.399 15.761,16.458C15.816,16.517 15.827,16.56 15.821,16.701C15.816,16.841 15.826,16.884 15.882,16.943C15.938,17.002 15.948,17.045 15.943,17.193C15.937,17.357 15.943,17.377 16.021,17.434C16.103,17.494 16.104,17.498 16.051,17.551C15.998,17.604 15.994,17.603 15.935,17.523C15.885,17.454 15.85,17.439 15.744,17.439C15.654,17.439 15.599,17.421 15.56,17.379C15.517,17.331 15.467,17.318 15.318,17.318C15.169,17.318 15.119,17.306 15.075,17.258C15.032,17.209 14.982,17.197 14.833,17.197C14.684,17.197 14.634,17.185 14.59,17.136C14.552,17.094 14.497,17.076 14.409,17.076C14.32,17.076 14.265,17.057 14.227,17.015C14.183,16.967 14.133,16.954 13.984,16.954C13.835,16.954 13.785,16.942 13.742,16.894C13.698,16.846 13.648,16.833 13.499,16.833C13.35,16.833 13.3,16.821 13.257,16.773C13.213,16.724 13.163,16.712 13.014,16.712C12.865,16.712 12.815,16.7 12.772,16.651C12.734,16.609 12.678,16.591 12.59,16.591C12.501,16.591 12.446,16.572 12.408,16.53C12.378,16.497 12.315,16.47 12.267,16.47C12.192,16.47 12.181,16.458 12.181,16.383C12.181,16.336 12.154,16.273 12.12,16.242C12.087,16.212 12.06,16.161 12.06,16.128C12.06,16.096 12.026,16.029 11.985,15.98C11.928,15.913 11.914,15.87 11.928,15.803C11.941,15.735 11.927,15.692 11.868,15.622C11.808,15.551 11.794,15.508 11.807,15.431C11.819,15.356 11.808,15.319 11.759,15.275C11.724,15.243 11.696,15.191 11.696,15.158C11.696,15.126 11.663,15.06 11.622,15.011C11.565,14.944 11.552,14.901 11.564,14.825C11.576,14.75 11.565,14.712 11.517,14.669C11.482,14.637 11.453,14.585 11.453,14.552C11.453,14.52 11.42,14.453 11.379,14.404C11.322,14.337 11.308,14.294 11.322,14.227C11.335,14.159 11.321,14.116 11.262,14.046C11.202,13.974 11.188,13.932 11.2,13.855C11.213,13.78 11.201,13.742 11.153,13.699C11.118,13.667 11.09,13.611 11.09,13.575C11.09,13.538 11.055,13.47 11.012,13.424C10.969,13.378 10.942,13.321 10.951,13.296C10.961,13.272 10.968,13.239 10.968,13.224C10.968,13.209 11.007,13.196 11.055,13.196C11.102,13.196 11.165,13.169 11.196,13.136C11.226,13.102 11.28,13.075 11.317,13.075C11.353,13.075 11.408,13.048 11.438,13.014C11.468,12.981 11.522,12.954 11.558,12.954C11.594,12.954 11.676,12.899 11.741,12.832C11.807,12.766 11.889,12.711 11.925,12.711C11.96,12.711 12.014,12.684 12.044,12.651C12.075,12.617 12.129,12.59 12.166,12.59C12.202,12.59 12.257,12.563 12.287,12.529C12.317,12.496 12.371,12.469 12.407,12.469C12.442,12.469 12.525,12.414 12.59,12.348C12.655,12.281 12.737,12.226 12.771,12.226C12.808,12.226 12.909,12.151 13.014,12.044C13.119,11.938 13.22,11.863 13.257,11.863C13.292,11.863 13.374,11.808 13.439,11.741C13.505,11.673 13.586,11.62 13.623,11.62C13.662,11.62 13.731,11.572 13.791,11.501C13.847,11.436 13.911,11.382 13.933,11.38C13.954,11.379 14.005,11.415 14.045,11.461Z"/>
</svg>
